Coordinates
version=1
nRows=6
nColumns=36
inDegrees=yes

Units are S.I. units (second, meters, Newtons, ...)
If the header above contains a line with 'inDegrees', this indicates whether rotational values are in degrees (yes) or radians (no).

endheader
time	pelvis_tilt	pelvis_list	pelvis_rotation	pelvis_tx	pelvis_ty	pelvis_tz	hip_flexion_r	hip_adduction_r	hip_rotation_r	knee_angle_r	knee_angle_r_beta	ankle_angle_r	subtalar_angle_r	mtp_angle_r	hip_flexion_l	hip_adduction_l	hip_rotation_l	knee_angle_l	knee_angle_l_beta	ankle_angle_l	subtalar_angle_l	mtp_angle_l	lumbar_extension	lumbar_bending	lumbar_rotation	arm_flex_r	arm_add_r	arm_rot_r	elbow_flex_r	pro_sup_r	arm_flex_l	arm_add_l	arm_rot_l	elbow_flex_l	pro_sup_l
      3.80000000	    -21.04185096	      3.44539407	    -12.82062787	      1.18204777	      0.93079300	      0.09363881	     42.19245485	     -9.42903822	    -12.38548761	     31.75635065	      0.55425288	      8.19666397	     -6.72011921	     -7.49999987	     42.16523329	    -13.57208009	    -10.97625135	     31.07897822	      0.54243050	     11.18839795	      0.50841064	     -7.49999987	     -8.16979527	      0.22326718	      2.04903523	     18.61904320	    -27.91225690	     33.15705717	    104.16315957	     80.73796471	     15.30601417	    -24.17054739	     29.71160093	    106.20898770	     84.75140165
      3.81666670	    -18.86969880	      3.20080380	    -13.02707289	      1.19595732	      0.94966895	      0.09371567	     36.67925228	     -9.08592619	    -13.14794388	     26.53339683	      0.46309514	      6.18328662	     -5.59790008	     -7.49999987	     36.33837043	    -12.50752505	    -11.45221106	     25.68404502	      0.44827115	      9.20529715	      1.00277867	     -7.49999987	     -8.05480637	      0.48820816	      1.85762440	     14.09568853	    -28.76430555	     32.89567682	    105.40952823	     80.63650028	     10.90318097	    -23.42944553	     28.60985020	    107.01598017	     84.32525892
      3.83333330	    -17.00723023	      2.98724989	    -13.39048262	      1.20191921	      0.96167380	      0.09259620	     31.99225746	     -8.69085942	    -13.33958237	     21.98966147	      0.38379199	      4.24194284	     -4.70215508	     -7.49999987	     31.15274427	    -11.61206922	    -11.90817438	     20.82999202	      0.36355194	      7.48281458	      1.72375982	     -7.49999987	     -7.83038119	      0.54795915	      1.33201548	      9.95866085	    -28.85886281	     33.22038901	    105.06341535	     80.65811993	      7.39043027	    -23.08515132	     28.14555526	    106.44864918	     84.44293648
      3.85000000	    -14.40438783	      2.28712992	    -13.69895950	      1.21673270	      0.98508368	      0.10772137	     25.51306274	     -7.70926809	    -13.89717290	     16.12166163	      0.28137608	      2.20709216	     -3.22849863	     -7.49999987	     24.47744939	    -10.96872815	    -12.31993364	     14.97019219	      0.26127914	      4.96740552	      2.47710896	     -7.49999987	     -8.06526173	      0.60471369	      0.96578913	      5.60891491	    -27.75773095	     32.36722202	    103.20466727	     82.16534520	      2.94958500	    -22.40751257	     27.00826352	    104.25894359	     86.31022601
      3.86666670	    -12.57031938	      1.61489415	    -14.08582940	      1.22149691	      0.99806341	      0.11238441	     20.44206187	     -6.59029827	    -13.80350230	     11.12382089	      0.19414730	      0.19232219	     -1.93311087	     -7.49999987	     19.24330151	    -10.75581309	    -12.56833203	     10.16942142	      0.17748989	      2.69223384	      3.01471555	     -7.49999987	     -7.53598246	      0.63110046	      0.97950161	      2.47274977	    -27.16180049	     32.34007201	    102.07139110	     82.08781916	     -0.34657297	    -22.07170487	     26.85110858	    103.52177758	     85.98387433
      3.88333330	    -11.25462732	      1.06464738	    -14.42041622	      1.22379597	      0.99741805	      0.11748604	     16.74570958	     -5.63097634	    -13.42475540	      7.53051743	      0.13143232	     -1.24998878	     -0.91900527	     -7.49999987	     15.51521751	    -10.73263961	    -12.55947476	      6.93745291	      0.12108139	      1.63832406	      3.40700659	     -7.49999987	     -7.09752292	      0.55167206	      1.07262366	     -1.03245133	    -27.84348983	     32.41718757	    103.32598376	     82.11004477	     -4.18263712	    -22.52189074	     26.19501975	    104.36333373	     85.63249351
